<svg width="112" height="114" viewBox="0 0 112 114" fill="none" xmlns="http://www.w3.org/2000/svg">
<path fill-rule="evenodd" clip-rule="evenodd" d="M47.9509 29.1625C50.681 29.6807 53.2405 30.8737 55.3992 32.6343C57.558 34.3948 59.2484 36.6678 60.3186 39.2488C61.3887 41.8299 61.8051 44.6382 61.5303 47.4213C61.2555 50.2045 60.298 52.8753 58.7441 55.1938L101.687 88.75C103.086 88.0206 104.688 87.7885 106.234 88.0914C107.78 88.3943 109.179 89.2145 110.204 90.4187C111.229 91.623 111.819 93.1406 111.879 94.7252C111.939 96.3097 111.466 97.8682 110.535 99.1475C109.604 100.427 108.271 101.352 106.753 101.773C105.234 102.193 103.619 102.085 102.169 101.465C100.719 100.844 99.5202 99.7492 98.7667 98.3567C98.0131 96.9642 97.7493 95.3562 98.018 93.7937L54.3424 59.6625C52.2857 61.0814 49.9405 62.0205 47.4776 62.4114C45.0148 62.8024 42.4964 62.6353 40.1058 61.9224C37.7152 61.2095 35.5127 59.9687 33.6587 58.2904C31.8047 56.6122 30.346 54.5387 29.3888 52.221C28.4316 49.9033 28 47.3999 28.1255 44.8931C28.251 42.3863 28.9304 39.9392 30.1142 37.7302C31.298 35.5211 32.9564 33.6057 34.9686 32.1236C36.9807 30.6414 39.296 29.6299 41.7457 29.1625L41.7394 0.75H47.9478L47.9509 29.1625ZM50.4311 45.75C50.4311 46.4887 50.2866 47.2201 50.0058 47.9026C49.725 48.5851 49.3134 49.2051 48.7946 49.7275C48.2757 50.2498 47.6598 50.6641 46.9819 50.9468C46.304 51.2295 45.5774 51.375 44.8436 51.375C44.1099 51.375 43.3833 51.2295 42.7054 50.9468C42.0275 50.6641 41.4115 50.2498 40.8927 49.7275C40.3738 49.2051 39.9622 48.5851 39.6814 47.9026C39.4006 47.2201 39.2561 46.4887 39.2561 45.75C39.2561 44.2582 39.8448 42.8274 40.8927 41.7725C41.9405 40.7176 43.3617 40.125 44.8436 40.125C46.3255 40.125 47.7467 40.7176 48.7946 41.7725C49.8424 42.8274 50.4311 44.2582 50.4311 45.75Z" fill="white"/>
<path d="M67.2682 45.7C67.2691 41.3773 66.0334 37.1459 63.7087 33.5116C61.384 29.8772 58.0687 26.9939 54.1593 25.2062V1.08124C67.473 2.25936 74.3891 6.48124 80.5819 12.2594C80.8923 12.5531 81.2028 12.8375 81.5008 13.1125C84.1393 15.55 86.2377 17.4937 87.3211 20.4L100.464 55.625C100.816 56.5704 100.936 57.5877 100.812 58.5898C100.688 59.5918 100.325 60.5487 99.7533 61.3785C99.1817 62.2082 98.4189 62.8862 97.5301 63.3542C96.6413 63.8222 95.653 64.0663 94.65 64.0656H89.5871V71.375L66.0731 52.9937C66.8694 50.6468 67.2743 48.1832 67.2713 45.7031M35.5343 25.2687V1.50311C7.62781 5.73124 0.137451 26.6906 0.137451 38.1719C0.137451 56.1937 11.5701 70.1719 16.931 75.775V113.25H70.0495V92.9H83.3757C84.3131 92.9 85.2071 92.6875 86.0018 92.3125L53.1442 66.625C47.7135 68.8811 41.6187 68.8939 36.1787 66.6605C30.7387 64.4271 26.391 60.1272 24.0763 54.6912C21.7616 49.2552 21.6661 43.1203 23.8104 37.614C25.9547 32.1076 30.1665 27.6727 35.5343 25.2687Z" fill="white"/>
</svg>
