<svg width="99" height="97" viewBox="0 0 99 97" fill="none" xmlns="http://www.w3.org/2000/svg">
<rect x="0.5" y="0.5" width="98" height="96" rx="9" fill="#FFA500"/>
<path d="M77.346 64.8267V83.5H14.5V13.5H77.346V31.6761C79.4439 34.9494 80.6537 38.805 80.6537 42.9318C80.6615 48.2168 78.6359 53.3177 74.967 57.2516L77.3353 59.5298C77.7947 59.3943 78.2839 59.3817 78.7502 59.4934C79.2166 59.6051 79.6425 59.8368 79.9822 60.1637L83.7249 63.7632C84.2212 64.2406 84.5 64.8881 84.5 65.5633C84.5 66.2385 84.2212 66.886 83.7249 67.3634C83.2286 67.8408 82.5554 68.109 81.8536 68.109C81.1517 68.109 80.4785 67.8408 79.9822 67.3634L77.346 64.8267ZM74.8652 60.5281L73.2131 58.9387C69.1235 62.468 63.8209 64.4166 58.3268 64.4091C45.9958 64.4091 36 54.7936 36 42.9318C36 31.07 45.9958 21.4545 58.3268 21.4545C64.8843 21.4545 70.7803 24.1734 74.8652 28.5031V15.8864H16.9808V81.1136H74.8652V60.5281ZM58.3268 62.0227C69.2877 62.0227 78.1729 53.4756 78.1729 42.9318C78.1729 32.3881 69.2877 23.8409 58.3268 23.8409C47.366 23.8409 38.4807 32.3881 38.4807 42.9318C38.4807 53.4756 47.366 62.0227 58.3268 62.0227ZM51.5047 44.9205H43.4422V42.5341H50.2643L56.0577 35.103L61.8958 46.3348L65.1878 42.5341H73.2114V44.9205H66.3504L61.3732 50.6652L55.6344 39.6243L51.5047 44.9205ZM47.5768 77.1364C46.9189 77.1364 46.2879 76.8849 45.8227 76.4374C45.3574 75.9899 45.0961 75.3829 45.0961 74.75C45.0961 74.1171 45.3574 73.5101 45.8227 73.0626C46.2879 72.6151 46.9189 72.3636 47.5768 72.3636C48.2348 72.3636 48.8658 72.6151 49.331 73.0626C49.7962 73.5101 50.0576 74.1171 50.0576 74.75C50.0576 75.3829 49.7962 75.9899 49.331 76.4374C48.8658 76.8849 48.2348 77.1364 47.5768 77.1364Z" fill="#003366"/>
</svg>
