<svg width="91" height="91" viewBox="0 0 91 91" fill="none" xmlns="http://www.w3.org/2000/svg">
<rect x="0.25" y="0.25" width="90.5" height="90.5" rx="9" fill="#FFA500"/>
<path d="M67.375 19.25H23.625C21 19.25 19.25 21 19.25 23.625V67.375C19.25 70 21 71.75 23.625 71.75H53.8125H56H56.875C54.25 71.75 51.625 70.875 49 69.5625H37.625V59.5H42.4375C42.4375 58.625 42.4375 58.1875 42 57.3125H37.625V46.375H46.375C47.25 45.5 48.125 44.625 49 44.1875H37.625V34.5625H54.25V42C55.125 42 55.5625 42 56.4375 41.5625V34.5625H70V44.1875H65.1875C66.0625 44.625 66.9375 45.5 67.8125 46.375H70V49C70.875 51.625 71.75 54.25 71.75 56.875V23.625C71.75 21 70 19.25 67.375 19.25ZM35.4375 69.5625H25.8125C23.1875 69.5625 21.4375 67.8125 21.4375 65.1875V59.5H35.4375V69.5625ZM35.4375 57.3125H21.4375V46.375H35.4375V57.3125ZM35.4375 44.625H21.4375V34.5625H35.4375V44.625ZM69.5625 32.375H21.4375V25.8125C21.4375 23.1875 23.1875 21.4375 25.8125 21.4375H65.1875C67.8125 21.4375 69.5625 23.1875 69.5625 25.8125V32.375Z" fill="#003366"/>
<path d="M56.9562 44.1782C49.4656 44.1782 43.7375 49.9063 43.7375 57.397C43.7375 64.8876 49.4656 70.6157 56.9562 70.6157C64.4469 70.6157 70.175 64.8876 70.175 57.397C70.175 49.9063 64.4469 44.1782 56.9562 44.1782ZM56.9562 68.4126C50.7875 68.4126 45.9406 63.5657 45.9406 57.397C45.9406 51.2282 50.7875 46.3813 56.9562 46.3813C63.125 46.3813 67.9719 51.2282 67.9719 57.397C67.9719 63.1251 63.125 68.4126 56.9562 68.4126Z" fill="#003366"/>
<path d="M58.2781 64.4469V66.2094H56.9563V64.4469C53.8719 64.4469 52.55 62.6844 51.6688 59.6L53.8719 59.1594C54.3125 61.3625 55.1938 62.6844 56.9563 62.6844V57.3969C53.8719 56.9563 52.1094 55.1937 52.1094 52.9906C52.1094 50.3469 53.8719 49.025 56.9563 49.025V47.7031H58.2781V49.4656C60.9219 49.9062 62.2438 51.2281 62.6844 53.4313L60.9219 53.8719C60.4813 52.1094 59.6 51.2281 58.2781 51.2281V56.075C61.8031 56.9562 63.125 58.2781 63.125 60.4812C62.6844 63.125 61.3625 64.4469 58.2781 64.4469ZM56.9563 55.6344V50.7875C55.1938 50.7875 54.3125 51.6687 54.3125 52.9906C54.3125 54.3125 55.1938 55.1938 56.9563 55.6344ZM58.2781 57.8375V63.125C60.0406 63.125 60.9219 62.2437 60.9219 60.4812C60.9219 59.1594 60.0406 58.2781 58.2781 57.8375Z" fill="#003366"/>
</svg>
