<svg width="16" height="16" viewBox="0 0 16 16" fill="none" xmlns="http://www.w3.org/2000/svg">
<path d="M5.39406 1.96564C5.26193 2.09781 5.1877 2.27704 5.1877 2.46393C5.1877 2.65082 5.26193 2.83006 5.39406 2.96223L8.88286 6.45103L5.39406 9.93983C5.26567 10.0728 5.19463 10.2508 5.19624 10.4356C5.19784 10.6204 5.27197 10.7972 5.40264 10.9278C5.53332 11.0585 5.71009 11.1326 5.89489 11.1343C6.07969 11.1359 6.25773 11.0648 6.39065 10.9364L10.3778 6.94933C10.5099 6.81716 10.5841 6.63792 10.5841 6.45103C10.5841 6.26414 10.5099 6.0849 10.3778 5.95273L6.39065 1.96564C6.25848 1.8335 6.07925 1.75928 5.89236 1.75928C5.70547 1.75928 5.52623 1.8335 5.39406 1.96564Z" fill="#003366"/>
</svg>
