<svg width="99" height="97" viewBox="0 0 99 97" fill="none" xmlns="http://www.w3.org/2000/svg">
<rect x="0.5" y="0.5" width="98" height="96" rx="9" fill="#FFA500"/>
<path d="M67.875 42.5C54.3445 42.5 43.375 53.2456 43.375 66.5C43.375 79.7544 54.3445 90.5 67.875 90.5C81.4055 90.5 92.375 79.7544 92.375 66.5C92.375 53.2456 81.4055 42.5 67.875 42.5ZM83.1875 61.0203L83.1607 61.0466L77.6281 66.4756L64.6316 79.2256L49.5 64.3784L53.8239 60.1362L64.6326 70.7431L77.0462 58.5603L77.0625 58.5444L81.9261 53.7716L83.1607 54.9828L83.1875 55.0091L86.25 58.0147L83.1875 61.0203Z" fill="#003366"/>
<path d="M74 12.5H67.875V18.5H73.9895L74 18.5103V43.2603C76.1462 43.8019 78.2069 44.6279 80.125 45.7156V18.5C80.1202 16.9101 79.4734 15.3868 78.3257 14.2626C77.1781 13.1383 75.623 12.5047 74 12.5ZM25.0105 84.5L25 84.4897V18.5103L25.0105 18.5H31.125V12.5H25C23.377 12.5047 21.8219 13.1383 20.6743 14.2626C19.5266 15.3868 18.8798 16.9101 18.875 18.5V84.5C18.8798 86.0899 19.5266 87.6133 20.6743 88.7374C21.8219 89.8616 23.377 90.4953 25 90.5H67.875C61.9066 90.5083 56.142 88.3737 51.6715 84.5H25.0105Z" fill="#003366"/>
<path d="M58.164 12.5C57.5315 10.744 56.3585 9.2234 54.8068 8.14781C53.255 7.07223 51.4009 6.49463 49.5 6.49463C47.5991 6.49463 45.745 7.07223 44.1932 8.14781C42.6415 9.2234 41.4685 10.744 40.836 12.5H34.1875V24.5H64.8125V12.5H58.164ZM49.5 18.5C48.8943 18.5 48.3022 18.3241 47.7986 17.9944C47.2949 17.6648 46.9024 17.1963 46.6706 16.6481C46.4388 16.0999 46.3782 15.4967 46.4963 14.9148C46.6145 14.3328 46.9062 13.7983 47.3345 13.3787C47.7628 12.9591 48.3085 12.6734 48.9025 12.5577C49.4966 12.4419 50.1124 12.5013 50.672 12.7284C51.2316 12.9555 51.7099 13.34 52.0464 13.8333C52.3829 14.3267 52.5625 14.9067 52.5625 15.5C52.5625 16.2957 52.2398 17.0587 51.6655 17.6213C51.0912 18.184 50.3122 18.5 49.5 18.5Z" fill="#003366"/>
</svg>
